<svg xmlns="http://www.w3.org/2000/svg" viewBox="0 0 433.49 83.77"><title>Műegyetemi Versenycsapat Közösség</title><defs><style>.a{fill:#27aae1}.b{fill:#1b75bc}.c{fill:#58595b}.d{fill:#414042}</style></defs><path class="a" d="M44.96 79.28H27.95L0 12.13h17l27.96 67.15zM80.4 79.28h-17L35.45 12.13h17L80.4 79.28zM115.56 79.28h-17L70.6 12.13h17.01l27.95 67.15zM161.74 12.13l-19.49 46.81-19.49-46.81h-17l27.96 67.15h17.07l27.95-67.15h-17z"/><path class="b" d="M133.72 79.28l8.48-20.46-2.61-6.28-5.87 26.74zM186.99 67.95l11.33-13.67-2.67-6.44-8.66 20.11z"/><path class="a" d="M193.51 83.77h17l-14.86-35.93L216.24 0h-17l-20.5 47.95 14.77 35.82z"/><path class="c" d="M242 5.73h4.19l3.32 11.62 3.29-11.62h4.2V20.6h-2.43V8.4h-.33l-3.5 11.6h-2.52L244.7 8.4h-.33v12.2H242zM265.74 18.74c2 0 3.06-.89 3.06-2.89V5.73h2.43v10.08c0 3.58-1.93 5-5.49 5s-5.45-1.45-5.45-5V5.73h2.43v10.12c0 2.02 1.04 2.89 3.02 2.89zM264.19 0l1.93.85-2.32 3.56-1.8-.74zm4.41 0l2 .85-2.35 3.56-1.76-.74zM274.53 5.73h9.38v2.11h-7V12h5.67v2.08h-5.67v4.34h7v2.18h-9.38zM292.43 12.79h4.23v7.55a38.46 38.46 0 0 1-5 .5c-4.73 0-5.95-2.74-5.95-7.66 0-5.21 1.43-7.69 5.86-7.69a29.34 29.34 0 0 1 5.06.59L296.58 8a42.9 42.9 0 0 0-4.6-.35c-3 0-3.73 1.35-3.73 5.54 0 4 .63 5.56 3.67 5.56a14.43 14.43 0 0 0 2.37-.2v-3.63h-1.85zM304.81 20.6h-2.43v-6.12l-4.67-8.75h2.71l3.15 6.38 3.17-6.38h2.69l-4.62 8.75zM311.25 5.73h9.38v2.11h-7V12h5.67v2.08h-5.67v4.34h7v2.18h-9.38zM321.82 5.73h10.85v2.15h-4.19V20.6h-2.43V7.88h-4.23zM334.67 5.73H344v2.11h-7V12h5.67v2.08H337v4.34h7v2.18h-9.38zM346.67 5.73h4.19l3.32 11.62 3.32-11.62h4.21V20.6h-2.43V8.4H359L355.44 20h-2.52l-3.51-11.6h-.33v12.2h-2.41zM365.12 5.73h2.41V20.6h-2.41z"/><path class="d" d="M255.27 34.08L250.88 52h-5.7l-4.4-17.92h3l3.56 15.36h1.31l3.56-15.36zM257.86 34.08h11.3v2.54h-8.4v5.08h6.83v2.51h-6.83v5.23h8.4V52h-11.3zM275.24 45.62V52h-2.9V34.08h6.8c4 0 6.07 1.73 6.07 5.7 0 2.54-1 4.29-2.93 5.18l3 7H282l-2.59-6.38zm3.9-9h-3.9v6.52h4c2.2 0 3-1.44 3-3.3-.02-2.07-1.01-3.25-3.1-3.25zM298.94 36.75s-3.66-.42-5.18-.42c-2.2 0-3.32.78-3.32 2.33s.94 2.07 4 2.9c3.77 1 5.13 2 5.13 5.1 0 3.93-2.46 5.63-6 5.63a38.15 38.15 0 0 1-5.86-.71l.29-2.33s3.53.47 5.39.47c2.22 0 3.24-1 3.24-2.88 0-1.52-.81-2-3.56-2.69-3.87-1-5.55-2.17-5.55-5.28 0-3.61 2.38-5.1 6-5.1a39.71 39.71 0 0 1 5.68.63zM302.71 34.08H314v2.54h-8.4v5.08h6.83v2.51h-6.83v5.23h8.4V52h-11.3zM317.18 34.08h5.08l5.44 15.36h.39V34.08H331V52h-5l-5.57-15.38h-.37V52h-2.9zM341.73 52h-2.93v-7.37l-5.63-10.55h3.27l3.79 7.69 3.82-7.69h3.25l-5.57 10.55zM359.94 51.72a28.3 28.3 0 0 1-5.1.58c-5.47 0-6.72-3.11-6.72-9.24 0-6.46 1.36-9.26 6.72-9.26a25.09 25.09 0 0 1 5.13.65l-.1 2.35a33.17 33.17 0 0 0-4.63-.42c-3.3 0-4.11 1.6-4.11 6.67 0 4.92.65 6.65 4.19 6.65a34.75 34.75 0 0 0 4.55-.39zM373.49 36.75s-3.66-.42-5.18-.42c-2.2 0-3.32.78-3.32 2.33s.94 2.07 4 2.9c3.77 1 5.13 2 5.13 5.1 0 3.93-2.46 5.63-6 5.63a38.15 38.15 0 0 1-5.86-.71l.29-2.33s3.53.47 5.39.47c2.22 0 3.24-1 3.24-2.88 0-1.52-.81-2-3.56-2.69-3.87-1-5.55-2.17-5.55-5.28 0-3.61 2.38-5.1 6-5.1a39.71 39.71 0 0 1 5.68.63zM379.9 34.08h5.78L390.14 52h-2.94l-1-3.85h-6.88l-1 3.85h-2.91zm0 11.51h5.73l-2.2-9.08h-1.31zM395.61 46.43V52h-2.9V34.08h6.57c4.08 0 6.1 2 6.1 6s-2 6.33-6.1 6.33zm3.64-2.51c2.17 0 3.14-1.33 3.14-3.82s-1-3.51-3.14-3.51h-3.64v7.33zM410.42 34.08h5.78L420.65 52h-2.93l-1-3.85h-6.88l-1 3.85H406zm0 11.51h5.73L414 36.51h-1.31zM420.41 34.08h13.08v2.59h-5V52h-2.93V36.67h-5.1zM247.89 75.92l-2.67.18v7.3h-2.9V65.48h2.9v8.09l2.67-.21 3.66-7.88h3.32l-4.42 9 4.6 8.92h-3.38zM256.5 74.53c0-6 1.7-9.34 7.3-9.34s7.27 3.32 7.27 9.34-1.67 9.16-7.27 9.16-7.3-3.11-7.3-9.16zm11.57 0c0-4.45-.81-6.8-4.27-6.8s-4.29 2.36-4.29 6.8.81 6.62 4.29 6.62 4.27-2.06 4.27-6.62zm-8.35-14.6h2.72v3h-2.72zm5.47 0h2.72v3h-2.72zM273.48 65.48h11.78v2.8l-8.32 12.09v.5h8.32v2.53h-11.78v-2.77l8.3-12.09V68h-8.3zM287.64 74.53c0-6 1.7-9.34 7.3-9.34s7.27 3.32 7.27 9.34-1.67 9.16-7.27 9.16-7.3-3.11-7.3-9.16zm11.57 0c0-4.45-.81-6.8-4.27-6.8s-4.29 2.36-4.29 6.8.81 6.62 4.29 6.62 4.27-2.06 4.27-6.62zm-8.35-14.6h2.72v3h-2.72zm5.47 0H299v3h-2.72zM316 68.15s-3.66-.42-5.18-.42c-2.2 0-3.32.78-3.32 2.33s.94 2.07 4 2.9c3.77 1 5.13 2 5.13 5.1 0 3.93-2.46 5.63-6 5.63a38.15 38.15 0 0 1-5.86-.71l.29-2.33s3.53.47 5.39.47c2.22 0 3.24-1 3.24-2.88 0-1.52-.81-2-3.56-2.7-3.87-1-5.55-2.17-5.55-5.28 0-3.61 2.38-5.1 6-5.1a39.71 39.71 0 0 1 5.68.63zM330.24 68.15s-3.66-.42-5.18-.42c-2.2 0-3.32.78-3.32 2.33s.94 2.07 4 2.9c3.77 1 5.13 2 5.13 5.1 0 3.93-2.46 5.63-6 5.63A38.15 38.15 0 0 1 319 83l.29-2.33s3.53.47 5.39.47c2.22 0 3.24-1 3.24-2.88 0-1.52-.81-2-3.56-2.7-3.87-1-5.55-2.17-5.55-5.28 0-3.61 2.38-5.1 6-5.1a39.71 39.71 0 0 1 5.68.63zM334 65.48h11.3V68h-8.4v5.08h6.83v2.51h-6.83v5.23h8.4v2.58H334zm8.4-6.65l.92 2.54-6.32 2.15-.73-2zM355.6 74h5.1v9.11a46.5 46.5 0 0 1-6 .6c-5.7 0-7.17-3.3-7.17-9.24 0-6.28 1.73-9.26 7.06-9.26a35.34 35.34 0 0 1 6.1.71l-.1 2.3a51.66 51.66 0 0 0-5.55-.42c-3.59 0-4.5 1.62-4.5 6.67 0 4.87.76 6.7 4.42 6.7a17.47 17.47 0 0 0 2.85-.23v-4.39h-2.21z"/></svg>