<svg id="Layer_1" data-name="Layer 1" xmlns="http://www.w3.org/2000/svg" xmlns:xlink="http://www.w3.org/1999/xlink" viewBox="0 0 141.73 53.67"><defs><style>.cls-1{fill:none;}.cls-2{clip-path:url(#clip-path);}.cls-3{opacity:0.75;}.cls-4{clip-path:url(#clip-path-2);}.cls-5{fill:#231f20;}.cls-6{fill:#b2293b;fill-rule:evenodd;}</style><clipPath id="clip-path"><rect class="cls-1" x="33.16" y="-14.93" width="124.22" height="185.56"/></clipPath><clipPath id="clip-path-2"><rect class="cls-1" x="50.84" y="-7.72" width="94.45" height="54.57"/></clipPath></defs><title>Artboard 1</title><g class="cls-2"><g class="cls-3"><g class="cls-4"><path class="cls-5" d="M67.5,18.49a1.83,1.83,0,0,0-.38,0H59.91l.16-.19a2.08,2.08,0,0,0,.34-.67,2.49,2.49,0,0,0,.08-.85V9.55a2.19,2.19,0,0,0-.16-.94A3.92,3.92,0,0,0,59.95,8l-.11-.12h6.73a3.19,3.19,0,0,0,.51-.05,1.77,1.77,0,0,0,.4-.18v2.85l-.15-.3a3,3,0,0,0-.77-.92,2.14,2.14,0,0,0-1.12-.41H62.71a1.36,1.36,0,0,0-.88.26,1.36,1.36,0,0,0-.19.81v2.55h2.71a1.4,1.4,0,0,0,.94-.26,2.53,2.53,0,0,0,.55-.49L66,11.5v2.71l-.15-.15a1.66,1.66,0,0,0-.64-.51,1.6,1.6,0,0,0-.9-.11H61.67v2.94a1.67,1.67,0,0,0,.21.86c.19.22.74.22.85.22h2.52A3.42,3.42,0,0,0,67,17a2.44,2.44,0,0,0,.71-1l.11-.23v3A.86.86,0,0,0,67.5,18.49Z"/><path class="cls-5" d="M77,14.76a1.24,1.24,0,0,0-.1.3v3.42s-.12-.09-.23-.15a.87.87,0,0,0-.25-.11h-.26a8.7,8.7,0,0,1-2,.37c-2.4-.06-2.87-1.83-2.89-3.61,0-2,.79-4,2.89-4A10.38,10.38,0,0,1,76,11.3h.22a.36.36,0,0,0,.25-.14.38.38,0,0,0,.11-.13v2.11l-.18-.3a2.31,2.31,0,0,0-2-1.2c-2.11.15-2.18,1.77-2.24,3.33-.09,1.77.73,3,2.16,2.93.83,0,1.84-.31,1.84-1.14V15.59a1.39,1.39,0,0,0-.11-.51,1.13,1.13,0,0,0-.38-.44l-.12-.11h1.67A1,1,0,0,0,77,14.76Z"/><path class="cls-5" d="M87.46,11.14s-.36.39-.57.66-.41.63-.44.68l-2,3.46v1.4a2.26,2.26,0,0,0,.13.64,1.26,1.26,0,0,0,.24.36l.13.13H83.2l.13-.13a1.26,1.26,0,0,0,.24-.36,2.28,2.28,0,0,0,.12-.64V16L81.43,12.1a3.89,3.89,0,0,0-.74-.9L80.53,11h1.85l-.07.12a1.06,1.06,0,0,0-.11.43,2.52,2.52,0,0,0,.18.57l1.74,3L85.88,12a1.28,1.28,0,0,0,.08-.45.79.79,0,0,0-.12-.39l-.06-.1h1.76Z"/><path class="cls-5" d="M96.32,18.49a1.26,1.26,0,0,0-.27,0H91l.12-.13a1.45,1.45,0,0,0,.24-.47,1.74,1.74,0,0,0,.06-.59v-5a1.52,1.52,0,0,0-.12-.66,2.76,2.76,0,0,0-.27-.44L91,11h4.71A2.28,2.28,0,0,0,96,11a1.25,1.25,0,0,0,.28-.12v2l-.11-.21a2.12,2.12,0,0,0-.54-.64,1.5,1.5,0,0,0-.79-.29H93a1,1,0,0,0-.61.18,1,1,0,0,0-.13.57v1.78h1.9a1,1,0,0,0,.66-.18,1.74,1.74,0,0,0,.38-.34l.11-.14v1.9l-.11-.11a1.16,1.16,0,0,0-.45-.35,1.13,1.13,0,0,0-.63-.08H92.24V17a1.18,1.18,0,0,0,.14.6c.13.15.52.15.59.15h1.76A2.4,2.4,0,0,0,96,17.41a1.71,1.71,0,0,0,.5-.71l.08-.16v2.07A.61.61,0,0,0,96.32,18.49Z"/><path class="cls-5" d="M105.66,12.71a2.13,2.13,0,0,0-.62-.77,1.52,1.52,0,0,0-.85-.24h-.46a.5.5,0,0,0-.36.12c-.16.15-.12.5-.12.57v4.94a2.07,2.07,0,0,0,.13.64,1.09,1.09,0,0,0,.23.36l.14.13H102l.13-.13a1.26,1.26,0,0,0,.24-.36,2.28,2.28,0,0,0,.12-.64V12.46s0-.45-.16-.6a1,1,0,0,0-.55-.16h-.41a1.34,1.34,0,0,0-.84.37,2,2,0,0,0-.5.68l-.09.14V10.84a.38.38,0,0,0,.17.15.74.74,0,0,0,.35,0h4.48a1.74,1.74,0,0,0,.45,0,1.23,1.23,0,0,0,.4-.15v2Z"/><path class="cls-5" d="M114.54,18.49a1.26,1.26,0,0,0-.27,0h-5l.12-.13a1.45,1.45,0,0,0,.24-.47,1.74,1.74,0,0,0,.06-.59v-5a1.52,1.52,0,0,0-.12-.66,2.76,2.76,0,0,0-.27-.44l-.08-.09h4.71a2.28,2.28,0,0,0,.35,0,1.25,1.25,0,0,0,.28-.12v2l-.11-.21a2.12,2.12,0,0,0-.54-.64,1.5,1.5,0,0,0-.79-.29h-1.91a1,1,0,0,0-.61.18,1,1,0,0,0-.13.57v1.78h1.9a1,1,0,0,0,.66-.18,1.74,1.74,0,0,0,.38-.34l.11-.14v1.9l-.11-.11a1.16,1.16,0,0,0-.45-.35,1.13,1.13,0,0,0-.63-.08h-1.84V17a1.18,1.18,0,0,0,.14.6c.13.15.52.15.59.15H113a2.4,2.4,0,0,0,1.24-.35,1.71,1.71,0,0,0,.5-.71l.08-.16v2.07A.6.6,0,0,0,114.54,18.49Z"/><path class="cls-5" d="M124.27,18.48l.11-.1a1.08,1.08,0,0,0,.28-.43,2.14,2.14,0,0,0,.12-.76V12.32l-2.22,5.75a.57.57,0,0,0-.06.22.35.35,0,0,0,.09.19h-1.19a.35.35,0,0,0,.11-.25.4.4,0,0,0,0-.21l-2.18-5.69v4.8a2.9,2.9,0,0,0,.11.75,1.73,1.73,0,0,0,.26.47l.16.13h-1.68l.08-.08a1.05,1.05,0,0,0,.23-.38,2.42,2.42,0,0,0,.12-.5V12.24a2.29,2.29,0,0,0-.14-.73,2.64,2.64,0,0,0-.22-.33l-.12-.14h1.73a.62.62,0,0,0,0,.26.68.68,0,0,0,.06.24L122,17.33l2.26-5.81a.83.83,0,0,0,0-.26.9.9,0,0,0,0-.22H126l-.09.12a2.18,2.18,0,0,0-.21.33,2.12,2.12,0,0,0-.11.63v5.18a1.58,1.58,0,0,0,.14.65,1.07,1.07,0,0,0,.26.42l.1.1Z"/><path class="cls-5" d="M129.52,18.48l.13-.13a1.26,1.26,0,0,0,.24-.36,2.3,2.3,0,0,0,.13-.64V12.19a2.41,2.41,0,0,0-.12-.65,1.25,1.25,0,0,0-.24-.36l-.13-.13h1.79l-.14.13a1.08,1.08,0,0,0-.23.36,2.18,2.18,0,0,0-.13.65v5.15a2.08,2.08,0,0,0,.13.64,1.08,1.08,0,0,0,.23.36l.14.13Z"/><path class="cls-5" d="M66,32.17l.19-.19a1.8,1.8,0,0,0,.33-.52,3.44,3.44,0,0,0,.19-.92V27.14H61.61v3.41a3.45,3.45,0,0,0,.19.92,1.56,1.56,0,0,0,.33.52l.19.19H59.78L60,32a1.55,1.55,0,0,0,.34-.52,3.27,3.27,0,0,0,.18-.92V23.19a3.43,3.43,0,0,0-.18-.93,1.55,1.55,0,0,0-.34-.52l-.19-.19h2.55l-.19.19a1.56,1.56,0,0,0-.33.52,3.63,3.63,0,0,0-.19.93v3h5.13v-3a3.62,3.62,0,0,0-.19-.93,1.8,1.8,0,0,0-.33-.52L66,21.55h2.55l-.19.19a1.56,1.56,0,0,0-.34.52,3.42,3.42,0,0,0-.18.93v7.35a3.26,3.26,0,0,0,.18.92,1.56,1.56,0,0,0,.34.52l.19.19Z"/><path class="cls-5" d="M76.4,32.17l.13-.16a.82.82,0,0,0,.1-.43,1.65,1.65,0,0,0-.11-.57l-.17-.49H72.8l-.18.5a1.43,1.43,0,0,0-.12.57.68.68,0,0,0,.23.49l.13.11H71.16l.08-.09a1.6,1.6,0,0,0,.33-.43,2.76,2.76,0,0,0,.23-.48l2.16-6a.42.42,0,0,0,.06-.24.47.47,0,0,0-.08-.19h1.35a.37.37,0,0,0-.09.22.53.53,0,0,0,0,.2l1.88,5.17a6.23,6.23,0,0,0,.31.87A5,5,0,0,0,78,32l.16.13Zm-1.85-6.62L73,29.8h3Z"/><path class="cls-5" d="M85.49,32.23a.56.56,0,0,0-.21,0h-4.7l.11-.12a2.12,2.12,0,0,0,.24-.37A2.61,2.61,0,0,0,81,31V25.89a2.4,2.4,0,0,0-.12-.65,1.25,1.25,0,0,0-.24-.36l-.13-.13h1.78l-.13.13a1.08,1.08,0,0,0-.23.36,2.17,2.17,0,0,0-.13.65v5s0,.35.24.47a1,1,0,0,0,.53.13h1.06a2.79,2.79,0,0,0,1.44-.38,1.27,1.27,0,0,0,.5-.67l.06-.22v2.19A.44.44,0,0,0,85.49,32.23Z"/><path class="cls-5" d="M93,32.23a.56.56,0,0,0-.21,0h-4.7l.11-.12a2.12,2.12,0,0,0,.24-.37,2.61,2.61,0,0,0,.12-.68V25.89a2.4,2.4,0,0,0-.12-.65,1.25,1.25,0,0,0-.24-.36l-.13-.13h1.78l-.13.13a1.08,1.08,0,0,0-.23.36,2.17,2.17,0,0,0-.13.65v5s0,.35.24.47a1,1,0,0,0,.53.13h1.06a2.79,2.79,0,0,0,1.44-.38,1.27,1.27,0,0,0,.5-.67l.06-.22v2.19A.44.44,0,0,0,93,32.23Z"/><path class="cls-5" d="M101.25,28.45a1.24,1.24,0,0,0-.1.3v3.42s-.12-.09-.23-.15a.87.87,0,0,0-.25-.11h-.26a8.7,8.7,0,0,1-2,.37c-2.4-.06-2.87-1.83-2.89-3.61,0-2,.79-4,2.89-4a10.38,10.38,0,0,1,1.81.35h.22a.36.36,0,0,0,.25-.14.38.38,0,0,0,.11-.13v2.11l-.18-.3a2.31,2.31,0,0,0-2-1.2c-2.11.15-2.18,1.77-2.24,3.33-.09,1.77.73,3,2.16,2.93.83,0,1.84-.31,1.84-1.14V29.29a1.39,1.39,0,0,0-.11-.51,1.13,1.13,0,0,0-.38-.44l-.12-.11h1.67A1,1,0,0,0,101.25,28.45Z"/><path class="cls-5" d="M109,32.17l.13-.16a.81.81,0,0,0,.1-.43,1.65,1.65,0,0,0-.11-.57l-.17-.49h-3.55l-.18.5a1.39,1.39,0,0,0-.12.57.68.68,0,0,0,.23.49l.13.11h-1.69l.08-.09a1.58,1.58,0,0,0,.33-.43,2.79,2.79,0,0,0,.23-.48l2.16-6a.42.42,0,0,0,.06-.24.48.48,0,0,0-.08-.19h1.35a.37.37,0,0,0-.09.22.53.53,0,0,0,0,.2l1.88,5.17a6.23,6.23,0,0,0,.31.87,5,5,0,0,0,.55.83l.16.13Zm-1.85-6.62-1.5,4.25h3Z"/><path class="cls-5" d="M118.86,26.4a2.13,2.13,0,0,0-.62-.77,1.52,1.52,0,0,0-.85-.24h-.46a.5.5,0,0,0-.36.12c-.16.15-.12.5-.12.57V31a2.07,2.07,0,0,0,.13.64,1.08,1.08,0,0,0,.23.36l.14.13h-1.79l.13-.13a1.26,1.26,0,0,0,.24-.36,2.28,2.28,0,0,0,.12-.64V26.15s0-.45-.16-.6a1,1,0,0,0-.55-.16h-.41a1.34,1.34,0,0,0-.84.37,1.94,1.94,0,0,0-.5.68l-.09.14V24.54a.38.38,0,0,0,.17.15.74.74,0,0,0,.35,0h4.48a1.74,1.74,0,0,0,.45,0,1.23,1.23,0,0,0,.4-.15v2Z"/><path class="cls-5" d="M124.24,32.3c-2.25,0-2.93-1.67-2.94-3.34v-.74c0-2.54,1.5-3.58,3-3.56s2.84.91,2.84,3.28v.86C127.15,30.67,126.19,32.31,124.24,32.3Zm2.1-4.16c0-1.62-.67-2.9-2.12-2.82s-2.11,1.31-2.12,3.12v.49c0,1.65.79,2.64,2.1,2.66s2.14-1.25,2.14-2.83Zm-1.48-4.24-1.24.39c-.15,0-.37.06-.43-.1s.08-.28.28-.36l1.11-.53c.28-.13.55-.14.65.09S125.09,23.84,124.86,23.9Z"/><path class="cls-5" d="M129.51,32.17l.13-.13a1.28,1.28,0,0,0,.24-.36A2.3,2.3,0,0,0,130,31V25.89a2.41,2.41,0,0,0-.12-.65,1.27,1.27,0,0,0-.24-.36l-.13-.13h1.79l-.14.13a1.08,1.08,0,0,0-.23.36,2.18,2.18,0,0,0-.13.65V31a2.08,2.08,0,0,0,.13.64,1.08,1.08,0,0,0,.23.36l.14.13Z"/><path class="cls-5" d="M67,45.87l.12-.15a1.37,1.37,0,0,0,.16-.55,1.09,1.09,0,0,0-.16-.64l-3-4.85L61.8,42v2.2a3,3,0,0,0,.19.92,1.54,1.54,0,0,0,.33.52l.21.19H60l.19-.19a1.8,1.8,0,0,0,.34-.52,3.26,3.26,0,0,0,.18-.92V36.89A3.42,3.42,0,0,0,60.5,36a1.8,1.8,0,0,0-.34-.52L60,35.25h2.56l-.21.19A1.54,1.54,0,0,0,62,36a3.11,3.11,0,0,0-.19.93V40.6l4.42-4.48a.67.67,0,0,0,.25-.49c0-.16-.16-.23-.26-.38h2.7l-.26.16c-.07,0-.47.3-.73.51s-.74.73-.75.73l-2.24,2.18,3.28,5.26A6,6,0,0,0,69,45.2a2.86,2.86,0,0,0,.41.41l.3.26Z"/><path class="cls-5" d="M76.65,45.88a1.26,1.26,0,0,0-.27,0h-5l.11-.13a1.45,1.45,0,0,0,.24-.47,1.74,1.74,0,0,0,.06-.59v-5a1.68,1.68,0,0,0-.11-.66,2.56,2.56,0,0,0-.28-.44l-.08-.09H76a2.28,2.28,0,0,0,.35,0,1.22,1.22,0,0,0,.28-.12v2l-.1-.21a2.12,2.12,0,0,0-.54-.64,1.5,1.5,0,0,0-.79-.29H73.3s-.45,0-.6.18a.91.91,0,0,0-.14.57v1.78h1.9a1,1,0,0,0,.66-.18,1.74,1.74,0,0,0,.38-.34L75.6,41v1.9l-.11-.11a1.16,1.16,0,0,0-.45-.35,1.09,1.09,0,0,0-.62-.08H72.57V44.4a1.18,1.18,0,0,0,.14.6c.13.15.52.15.59.15h1.76a2.4,2.4,0,0,0,1.24-.35,1.62,1.62,0,0,0,.5-.71l.08-.16V46A.54.54,0,0,0,76.65,45.88ZM75.2,37.62,74,38c-.15,0-.37.07-.43-.1s.09-.28.28-.36L74.92,37c.27-.13.54-.14.64.09S75.42,37.54,75.2,37.62Z"/><path class="cls-5" d="M82,42.48l-1.15.21a1.79,1.79,0,0,0-.7.15.61.61,0,0,0-.24.48v1.4a2.07,2.07,0,0,0,.13.64,1.09,1.09,0,0,0,.23.36l.13.13H78.58l.13-.13a1.09,1.09,0,0,0,.23-.36,2.07,2.07,0,0,0,.13-.64V40.85A11.88,11.88,0,0,0,79,39.24a1.42,1.42,0,0,0-.31-.68l-.1-.12.72.06h.53l1.34-.06c1.6,0,2.71.51,2.71,2A2,2,0,0,1,82,42.48Zm-.49-3.38H81a3.06,3.06,0,0,0-1,.11c-.12,0-.16.29-.16.31V42.2l.25-.1A2.45,2.45,0,0,1,80.5,42c.27,0,.44,0,.72-.1l.56-.1c.74-.12,1.38-.57,1.33-1.39C83.06,39.35,82.28,39.1,81.47,39.1Z"/><path class="cls-5" d="M92.47,38.55a6.13,6.13,0,0,0-.43.65c-.12.22-.27.53-.3.58l-2.17,5.77a.24.24,0,0,0,0,.2.23.23,0,0,0,.1.11H88.38a.83.83,0,0,0,0-.14.63.63,0,0,0,0-.19l-2.08-5.7a4.57,4.57,0,0,0-.33-.69,3.27,3.27,0,0,0-.35-.54l-.13-.17H87.2l-.08.12a1.07,1.07,0,0,0-.13.57,2.25,2.25,0,0,0,.14.61L89,44.88l2-5.33a1.51,1.51,0,0,0,.11-.6.71.71,0,0,0-.16-.43l-.09-.09h1.66Z"/><path class="cls-5" d="M94.33,45.87l.13-.13a1.28,1.28,0,0,0,.24-.36,2.3,2.3,0,0,0,.13-.64V39.58a2.41,2.41,0,0,0-.12-.65,1.27,1.27,0,0,0-.24-.36l-.13-.13h1.79l-.14.13a1.08,1.08,0,0,0-.23.36,2.18,2.18,0,0,0-.13.65v5.15a2.08,2.08,0,0,0,.13.64,1.08,1.08,0,0,0,.23.36l.14.13Z"/><path class="cls-5" d="M100.29,46a8.16,8.16,0,0,1-1.71-.33h-.23a.52.52,0,0,0-.34.15,1,1,0,0,0-.16.18V43.73L98,44a2.48,2.48,0,0,0,2.16,1.33,1.6,1.6,0,0,0,1.78-1.58c0-.84-.63-1.18-1.58-1.48L99.79,42c-1.27-.37-1.8-.82-1.83-1.82a2,2,0,0,1,2.24-1.9,9,9,0,0,1,1.55.29h.32c.08,0,.12-.07.18-.12a.62.62,0,0,0,.16-.19v2.2l-.21-.32a2.2,2.2,0,0,0-2-1.17,1.34,1.34,0,0,0-1.5,1.17c0,.81,1.25,1.14,1.37,1.17l.5.14c1.52.41,2.12,1,2.14,2.2A2.25,2.25,0,0,1,100.29,46Z"/><path class="cls-5" d="M109.72,45.88a1.26,1.26,0,0,0-.27,0h-5l.12-.13a1.45,1.45,0,0,0,.24-.47,1.74,1.74,0,0,0,.06-.59v-5a1.52,1.52,0,0,0-.12-.66,2.76,2.76,0,0,0-.27-.44l-.08-.09h4.71a2.28,2.28,0,0,0,.35,0,1.25,1.25,0,0,0,.28-.12v2l-.11-.21a2.12,2.12,0,0,0-.54-.64,1.5,1.5,0,0,0-.79-.29h-1.91a.61.61,0,0,0-.75.75v1.78h1.9a1,1,0,0,0,.66-.18,1.74,1.74,0,0,0,.38-.34l.11-.14v1.9l-.11-.11a1.16,1.16,0,0,0-.45-.35,1.13,1.13,0,0,0-.63-.08h-1.84V44.4a1.18,1.18,0,0,0,.14.6c.13.15.52.15.59.15h1.76a2.4,2.4,0,0,0,1.24-.35,1.71,1.71,0,0,0,.5-.71l.08-.16V46A.6.6,0,0,0,109.72,45.88Z"/><path class="cls-5" d="M116.53,45.92a.56.56,0,0,0-.21,0h-4.7l.11-.12a2.12,2.12,0,0,0,.24-.37,2.61,2.61,0,0,0,.12-.68V39.58a2.4,2.4,0,0,0-.12-.65,1.25,1.25,0,0,0-.24-.36l-.13-.13h1.78l-.13.13a1.08,1.08,0,0,0-.23.36,2.17,2.17,0,0,0-.13.65v5s0,.35.24.47a1,1,0,0,0,.53.13h1.06a2.79,2.79,0,0,0,1.44-.38,1.27,1.27,0,0,0,.5-.67l.06-.22v2.19A.44.44,0,0,0,116.53,45.92Z"/><path class="cls-5" d="M123.68,45.88a1.26,1.26,0,0,0-.27,0h-5l.12-.13a1.45,1.45,0,0,0,.24-.47,1.74,1.74,0,0,0,.06-.59v-5a1.52,1.52,0,0,0-.12-.66,2.76,2.76,0,0,0-.27-.44l-.08-.09H123a2.28,2.28,0,0,0,.35,0,1.25,1.25,0,0,0,.28-.12v2l-.11-.21a2.12,2.12,0,0,0-.54-.64,1.5,1.5,0,0,0-.79-.29h-1.91a.61.61,0,0,0-.75.75v1.78h1.9a1,1,0,0,0,.66-.18,1.74,1.74,0,0,0,.38-.34l.11-.14v1.9l-.11-.11a1.16,1.16,0,0,0-.45-.35,1.13,1.13,0,0,0-.63-.08H119.6V44.4a1.18,1.18,0,0,0,.14.6c.13.15.52.15.59.15h1.76a2.4,2.4,0,0,0,1.24-.35,1.71,1.71,0,0,0,.5-.71l.08-.16V46A.6.6,0,0,0,123.68,45.88Z"/><path class="cls-5" d="M131.26,40.1a2.13,2.13,0,0,0-.62-.77,1.52,1.52,0,0,0-.85-.24h-.46a.5.5,0,0,0-.36.12c-.16.15-.12.5-.12.57v4.94a2.07,2.07,0,0,0,.13.64,1.09,1.09,0,0,0,.23.36l.14.13h-1.79l.13-.13a1.26,1.26,0,0,0,.24-.36,2.28,2.28,0,0,0,.12-.64V39.85s0-.45-.16-.6a1,1,0,0,0-.55-.16h-.41a1.34,1.34,0,0,0-.84.37,2,2,0,0,0-.5.68l-.09.14V38.23a.38.38,0,0,0,.17.15.74.74,0,0,0,.35,0h4.48a1.74,1.74,0,0,0,.45,0,1.23,1.23,0,0,0,.4-.15v2Z"/></g></g></g><path class="cls-6" d="M19.16,23.73c0-4.54,5.2-8.42,10.76-8.42a16.45,16.45,0,0,1,4.94.81c.38.1,2,1.06,1.84,1.73l-.1.09c-.38.1-1.84-.76-2.22-.86a9.83,9.83,0,0,0-7.92.23c-2.41,1-5,4.67-5.38,7,0,.1.1.19.1.29a7.05,7.05,0,0,0,0,1.45c0,.57.68,1.54.88,2.12a11.69,11.69,0,0,0,3.13,3.31A9.57,9.57,0,0,0,31,33.8a8.72,8.72,0,0,0,7.41-5.25c1.14-3.1.83-7.72-2.95-9.15-2-.76-3.28-.07-5.11.22h-.2c-.19-.19-.48-.38-.58-.67.37-1.64,4.53-.89,5.59-.51a9.49,9.49,0,0,1,5.64,7,5.94,5.94,0,0,1-.18,2.8,9.29,9.29,0,0,1-5.48,5.63c-3.56,1.37-7.2.64-10.53-.91-2.64-1.24-6.2-6-5.45-9.24"/><path class="cls-6" d="M51.73,23.26a1.63,1.63,0,1,1-2.32,0,1.64,1.64,0,0,1,2.32,0"/><path class="cls-6" d="M43.83,15.44a1.63,1.63,0,1,1-2.31,0,1.64,1.64,0,0,1,2.31,0"/><polyline class="cls-6" points="43.84 15.45 51.76 23.29 49.45 25.62 41.53 17.78 43.84 15.45"/><path class="cls-6" d="M49.42,23.28a1.63,1.63,0,1,1,0,2.32,1.64,1.64,0,0,1,0-2.32"/><path class="cls-6" d="M41.6,31.18a1.63,1.63,0,1,1,0,2.31,1.64,1.64,0,0,1,0-2.31"/><polyline class="cls-6" points="41.6 31.18 49.45 23.25 51.78 25.56 43.93 33.48 41.6 31.18"/><path class="cls-6" d="M41.61,33.52a1.63,1.63,0,1,1,2.32,0,1.64,1.64,0,0,1-2.32,0"/><path class="cls-6" d="M49.52,41.34a1.63,1.63,0,1,1,2.31,0,1.64,1.64,0,0,1-2.31,0"/><polyline class="cls-6" points="49.51 41.34 41.58 33.49 43.89 31.16 51.82 39 49.51 41.34"/><path class="cls-6" d="M49.34,7.56a1.63,1.63,0,1,1,0,2.32,1.64,1.64,0,0,1,0-2.32"/><path class="cls-6" d="M41.51,15.46a1.63,1.63,0,1,1,0,2.31,1.64,1.64,0,0,1,0-2.31"/><polyline class="cls-6" points="41.52 15.45 49.36 7.53 51.69 9.84 43.85 17.76 41.52 15.45"/><path class="cls-6" d="M31.49,46.08a1.63,1.63,0,1,1,0-2.32,1.64,1.64,0,0,1,0,2.32"/><path class="cls-6" d="M39.31,38.18a1.63,1.63,0,1,1,0-2.31,1.64,1.64,0,0,1,0,2.31"/><polyline class="cls-6" points="39.3 38.18 31.46 46.11 29.13 43.8 36.97 35.88 39.3 38.18"/><path class="cls-6" d="M31.47,43.76a1.63,1.63,0,1,1-2.32,0,1.64,1.64,0,0,1,2.32,0"/><path class="cls-6" d="M23.57,35.94a1.63,1.63,0,1,1-2.31,0,1.64,1.64,0,0,1,2.31,0"/><polyline class="cls-6" points="23.58 35.95 31.5 43.79 29.2 46.12 21.27 38.28 23.58 35.95"/><path class="cls-6" d="M21.22,36a1.63,1.63,0,1,1,0,2.32,1.64,1.64,0,0,1,0-2.32"/><path class="cls-6" d="M13.4,43.86a1.63,1.63,0,1,1,0,2.31,1.64,1.64,0,0,1,0-2.31"/><polyline class="cls-6" points="13.41 43.85 21.25 35.93 23.58 38.23 15.74 46.16 13.41 43.85"/><path class="cls-6" d="M47.19,43.68a1.63,1.63,0,1,1-2.32,0,1.64,1.64,0,0,1,2.32,0"/><path class="cls-6" d="M39.28,35.86a1.63,1.63,0,1,1-2.31,0,1.64,1.64,0,0,1,2.31,0"/><polyline class="cls-6" points="39.29 35.87 47.22 43.71 44.91 46.04 36.98 38.2 39.29 35.87"/><path class="cls-6" d="M8.59,25.76a1.63,1.63,0,1,1,2.32,0,1.64,1.64,0,0,1-2.32,0"/><path class="cls-6" d="M16.49,33.58a1.63,1.63,0,1,1,2.31,0,1.64,1.64,0,0,1-2.31,0"/><polyline class="cls-6" points="16.48 33.57 8.56 25.73 10.87 23.4 18.79 31.24 16.48 33.57"/><path class="cls-6" d="M10.9,25.74a1.63,1.63,0,1,1,0-2.32,1.64,1.64,0,0,1,0,2.32"/><path class="cls-6" d="M18.72,17.83a1.63,1.63,0,1,1,0-2.31,1.64,1.64,0,0,1,0,2.31"/><polyline class="cls-6" points="18.72 17.84 10.87 25.77 8.54 23.46 16.39 15.54 18.72 17.84"/><path class="cls-6" d="M18.71,15.5a1.63,1.63,0,1,1-2.32,0,1.64,1.64,0,0,1,2.32,0"/><path class="cls-6" d="M10.81,7.68a1.63,1.63,0,1,1-2.31,0,1.64,1.64,0,0,1,2.31,0"/><polyline class="cls-6" points="10.81 7.68 18.74 15.52 16.43 17.85 8.51 10.01 10.81 7.68"/><path class="cls-6" d="M11,41.46a1.63,1.63,0,1,1,0-2.32,1.65,1.65,0,0,1,0,2.32"/><path class="cls-6" d="M18.8,33.56a1.63,1.63,0,1,1,0-2.31,1.64,1.64,0,0,1,0,2.31"/><polyline class="cls-6" points="18.8 33.56 10.96 41.49 8.63 39.18 16.47 31.26 18.8 33.56"/></svg>