<svg xmlns="http://www.w3.org/2000/svg" viewBox="0 0 433.49 83.77"><defs><style>.a{fill:#27aae1;}.b{fill:#1b75bc;}.c{fill:#58595b;}.d{fill:#414042;}</style></defs><title>Műegyetemi Versenycsapat Közösség</title><polygon class="a" points="44.96 79.28 27.95 79.28 0 12.13 17 12.13 44.96 79.28"/><polygon class="a" points="80.4 79.28 63.4 79.28 35.45 12.13 52.45 12.13 80.4 79.28"/><polygon class="a" points="115.56 79.28 98.56 79.28 70.6 12.13 87.61 12.13 115.56 79.28"/><polygon class="a" points="161.74 12.13 142.25 58.94 122.76 12.13 105.76 12.13 133.72 79.28 133.79 79.28 150.72 79.28 150.79 79.28 178.74 12.13 161.74 12.13"/><polygon class="b" points="133.72 79.28 142.2 58.82 139.59 52.54 133.72 79.28"/><polygon class="b" points="186.99 67.95 198.32 54.28 195.65 47.84 186.99 67.95"/><polygon class="a" points="193.51 83.77 210.51 83.77 195.65 47.84 216.24 0 199.24 0 178.74 47.95 193.51 83.77"/><path class="c" d="M242,5.73h4.19l3.32,11.62L252.8,5.73H257V20.6h-2.43V8.4h-.33L250.74,20h-2.52L244.7,8.4h-.33V20.6H242Z"/><path class="c" d="M265.74,18.74c2,0,3.06-.89,3.06-2.89V5.73h2.43V15.81c0,3.58-1.93,5-5.49,5s-5.45-1.45-5.45-5V5.73h2.43V15.85C262.72,17.87,263.76,18.74,265.74,18.74ZM264.19,0l1.93.85L263.8,4.41,262,3.67Zm4.41,0,2,.85-2.35,3.56-1.76-.74Z"/><path class="c" d="M274.53,5.73h9.38V7.84h-7V12h5.67v2.08h-5.67v4.34h7V20.6h-9.38Z"/><path class="c" d="M292.43,12.79h4.23v7.55a38.46,38.46,0,0,1-5,.5c-4.73,0-5.95-2.74-5.95-7.66,0-5.21,1.43-7.69,5.86-7.69a29.34,29.34,0,0,1,5.06.59L296.58,8a42.9,42.9,0,0,0-4.6-.35c-3,0-3.73,1.35-3.73,5.54,0,4,.63,5.56,3.67,5.56a14.43,14.43,0,0,0,2.37-.2V14.92h-1.85Z"/><path class="c" d="M304.81,20.6h-2.43V14.48l-4.67-8.75h2.71l3.15,6.38,3.17-6.38h2.69l-4.62,8.75Z"/><path class="c" d="M311.25,5.73h9.38V7.84h-7V12h5.67v2.08h-5.67v4.34h7V20.6h-9.38Z"/><path class="c" d="M321.82,5.73h10.85V7.88h-4.19V20.6h-2.43V7.88h-4.23Z"/><path class="c" d="M334.67,5.73H344V7.84h-7V12h5.67v2.08h-5.67v4.34h7V20.6h-9.38Z"/><path class="c" d="M346.67,5.73h4.19l3.32,11.62,3.32-11.62h4.21V20.6h-2.43V8.4H359L355.44,20h-2.52L349.41,8.4h-.33V20.6h-2.41Z"/><path class="c" d="M365.12,5.73h2.41V20.6h-2.41Z"/><path class="d" d="M255.27,34.08,250.88,52h-5.7l-4.4-17.92h3l3.56,15.36h1.31l3.56-15.36Z"/><path class="d" d="M257.86,34.08h11.3v2.54h-8.4v5.08h6.83v2.51h-6.83v5.23h8.4V52h-11.3Z"/><path class="d" d="M275.24,45.62V52h-2.9V34.08h6.8c4,0,6.07,1.73,6.07,5.7,0,2.54-1,4.29-2.93,5.18l3,7H282l-2.59-6.38Zm3.9-9h-3.9v6.52h4c2.2,0,3-1.44,3-3.3C282.22,37.77,281.23,36.59,279.14,36.59Z"/><path class="d" d="M298.94,36.75s-3.66-.42-5.18-.42c-2.2,0-3.32.78-3.32,2.33s.94,2.07,4,2.9c3.77,1,5.13,2,5.13,5.1,0,3.93-2.46,5.63-6,5.63a38.15,38.15,0,0,1-5.86-.71l.29-2.33s3.53.47,5.39.47c2.22,0,3.24-1,3.24-2.88,0-1.52-.81-2-3.56-2.69-3.87-1-5.55-2.17-5.55-5.28,0-3.61,2.38-5.1,6-5.1a39.71,39.71,0,0,1,5.68.63Z"/><path class="d" d="M302.71,34.08H314v2.54h-8.4v5.08h6.83v2.51h-6.83v5.23H314V52h-11.3Z"/><path class="d" d="M317.18,34.08h5.08l5.44,15.36h.39V34.08H331V52h-5l-5.57-15.38h-.37V52h-2.9Z"/><path class="d" d="M341.73,52H338.8V44.63l-5.63-10.55h3.27l3.79,7.69,3.82-7.69h3.25l-5.57,10.55Z"/><path class="d" d="M359.94,51.72a28.3,28.3,0,0,1-5.1.58c-5.47,0-6.72-3.11-6.72-9.24,0-6.46,1.36-9.26,6.72-9.26a25.09,25.09,0,0,1,5.13.65l-.1,2.35a33.17,33.17,0,0,0-4.63-.42c-3.3,0-4.11,1.6-4.11,6.67,0,4.92.65,6.65,4.19,6.65a34.75,34.75,0,0,0,4.55-.39Z"/><path class="d" d="M373.49,36.75s-3.66-.42-5.18-.42c-2.2,0-3.32.78-3.32,2.33s.94,2.07,4,2.9c3.77,1,5.13,2,5.13,5.1,0,3.93-2.46,5.63-6,5.63a38.15,38.15,0,0,1-5.86-.71l.29-2.33s3.53.47,5.39.47c2.22,0,3.24-1,3.24-2.88,0-1.52-.81-2-3.56-2.69-3.87-1-5.55-2.17-5.55-5.28,0-3.61,2.38-5.1,6-5.1a39.71,39.71,0,0,1,5.68.63Z"/><path class="d" d="M379.9,34.08h5.78L390.14,52H387.2l-1-3.85h-6.88l-1,3.85h-2.91Zm0,11.51h5.73l-2.2-9.08h-1.31Z"/><path class="d" d="M395.61,46.43V52h-2.9V34.08h6.57c4.08,0,6.1,2,6.1,6s-2,6.33-6.1,6.33Zm3.64-2.51c2.17,0,3.14-1.33,3.14-3.82s-1-3.51-3.14-3.51h-3.64v7.33Z"/><path class="d" d="M410.42,34.08h5.78L420.65,52h-2.93l-1-3.85h-6.88l-1,3.85H406Zm0,11.51h5.73L414,36.51h-1.31Z"/><path class="d" d="M420.41,34.08h13.08v2.59h-5V52h-2.93V36.67h-5.1Z"/><path class="d" d="M247.89,75.92l-2.67.18v7.3h-2.9V65.48h2.9v8.09l2.67-.21,3.66-7.88h3.32l-4.42,9,4.6,8.92h-3.38Z"/><path class="d" d="M256.5,74.53c0-6,1.7-9.34,7.3-9.34s7.27,3.32,7.27,9.34-1.67,9.16-7.27,9.16S256.5,80.58,256.5,74.53Zm11.57,0c0-4.45-.81-6.8-4.27-6.8s-4.29,2.36-4.29,6.8.81,6.62,4.29,6.62S268.07,79.09,268.07,74.53Zm-8.35-14.6h2.72v3h-2.72Zm5.47,0h2.72v3h-2.72Z"/><path class="d" d="M273.48,65.48h11.78v2.8l-8.32,12.09v.5h8.32V83.4H273.48V80.63l8.3-12.09V68h-8.3Z"/><path class="d" d="M287.64,74.53c0-6,1.7-9.34,7.3-9.34s7.27,3.32,7.27,9.34-1.67,9.16-7.27,9.16S287.64,80.58,287.64,74.53Zm11.57,0c0-4.45-.81-6.8-4.27-6.8s-4.29,2.36-4.29,6.8.81,6.62,4.29,6.62S299.21,79.09,299.21,74.53Zm-8.35-14.6h2.72v3h-2.72Zm5.47,0H299v3h-2.72Z"/><path class="d" d="M316,68.15s-3.66-.42-5.18-.42c-2.2,0-3.32.78-3.32,2.33s.94,2.07,4,2.9c3.77,1,5.13,2,5.13,5.1,0,3.93-2.46,5.63-6,5.63a38.15,38.15,0,0,1-5.86-.71l.29-2.33s3.53.47,5.39.47c2.22,0,3.24-1,3.24-2.88,0-1.52-.81-2-3.56-2.7-3.87-1-5.55-2.17-5.55-5.28,0-3.61,2.38-5.1,6-5.1a39.71,39.71,0,0,1,5.68.63Z"/><path class="d" d="M330.24,68.15s-3.66-.42-5.18-.42c-2.2,0-3.32.78-3.32,2.33s.94,2.07,4,2.9c3.77,1,5.13,2,5.13,5.1,0,3.93-2.46,5.63-6,5.63A38.15,38.15,0,0,1,319,83l.29-2.33s3.53.47,5.39.47c2.22,0,3.24-1,3.24-2.88,0-1.52-.81-2-3.56-2.7-3.87-1-5.55-2.17-5.55-5.28,0-3.61,2.38-5.1,6-5.1a39.71,39.71,0,0,1,5.68.63Z"/><path class="d" d="M334,65.48h11.3V68h-8.4v5.08h6.83v2.51h-6.83v5.23h8.4V83.4H334Zm8.4-6.65.92,2.54L337,63.52l-.73-2Z"/><path class="d" d="M355.6,74h5.1v9.11a46.5,46.5,0,0,1-6,.6c-5.7,0-7.17-3.3-7.17-9.24,0-6.28,1.73-9.26,7.06-9.26a35.34,35.34,0,0,1,6.1.71l-.1,2.3a51.66,51.66,0,0,0-5.55-.42c-3.59,0-4.5,1.62-4.5,6.67,0,4.87.76,6.7,4.42,6.7a17.47,17.47,0,0,0,2.85-.23V76.55H355.6Z"/></svg>